HIERARCHY
ROOT Hips
{
	OFFSET 0.000000 35.069874 -0.029489
	CHANNELS 6 Xposition Yposition Zposition Xrotation Yrotation Zrotation 
	JOINT Spine
	{
		OFFSET 0.000000 6.876060 0.125662
		CHANNELS 3 Xrotation Yrotation Zrotation
		JOINT Spine1
		{
			OFFSET 0.000000 5.730046 0.104717
			CHANNELS 3 Xrotation Yrotation Zrotation
			JOINT Spine1_split
			{
				OFFSET 0.000000 5.730046 0.104717
				CHANNELS 3 Xrotation Yrotation Zrotation
				JOINT Spine2
				{
					OFFSET 0.000000 5.730046 0.104717
					CHANNELS 3 Xrotation Yrotation Zrotation
					JOINT Neck
					{
						OFFSET 0.000000 10.314075 0.188489
						CHANNELS 3 Xrotation Yrotation Zrotation
						JOINT Head
						{
							OFFSET 0.000000 7.643753 -2.377445
							CHANNELS 3 Xrotation Yrotation Zrotation
							JOINT HeadTop_End
							{
								OFFSET 0.000000 43.788605 -13.619637
								CHANNELS 3 Xrotation Yrotation Zrotation
								End Site
								{
									OFFSET 0.000000 0.000000 0.000000
								}
							}
						}
					}
					JOINT LeftShoulder
					{
						OFFSET 2.196093 4.412501 0.087498
						CHANNELS 3 Xrotation Yrotation Zrotation
						JOINT LeftShoulder_split
						{
							OFFSET 2.196093 4.412501 0.087498
							CHANNELS 3 Xrotation Yrotation Zrotation
							JOINT LeftArm
							{
								OFFSET 8.774866 -2.970879 -0.026997
								CHANNELS 3 Xrotation Yrotation Zrotation
								JOINT LeftForeArm
								{
									OFFSET 8.450586 -0.797432 -0.648343
									CHANNELS 3 Xrotation Yrotation Zrotation
									JOINT LeftHand
									{
										OFFSET 18.458662 0.962311 0.193148
										CHANNELS 3 Xrotation Yrotation Zrotation
										JOINT LeftHandThumb1
										{
											OFFSET 2.379990 -1.333382 2.680594
											CHANNELS 3 Xrotation Yrotation Zrotation
											JOINT LeftHandThumb2
											{
												OFFSET 1.903984 -1.066746 2.144473
												CHANNELS 3 Xrotation Yrotation Zrotation
												JOINT LeftHandThumb3
												{
													OFFSET 0.966393 -1.489639 2.964555
													CHANNELS 3 Xrotation Yrotation Zrotation
													JOINT LeftHandThumb4
													{
														OFFSET 1.205181 -0.823021 1.625701
														CHANNELS 3 Xrotation Yrotation Zrotation
														End Site
														{
															OFFSET 0.000000 0.000000 0.000000
														}
													}
												}
											}
										}
										JOINT LeftHandIndex1
										{
											OFFSET 7.830624 -0.787468 2.563931
											CHANNELS 3 Xrotation Yrotation Zrotation
											JOINT LeftHandIndex2
											{
												OFFSET 3.312897 -0.052605 1.515312
												CHANNELS 3 Xrotation Yrotation Zrotation
												JOINT LeftHandIndex3
												{
													OFFSET 3.460667 -0.207008 1.581951
													CHANNELS 3 Xrotation Yrotation Zrotation
													JOINT LeftHandIndex4
													{
														OFFSET 2.183182 0.110458 0.999585
														CHANNELS 3 Xrotation Yrotation Zrotation
														End Site
														{
															OFFSET 0.000000 0.000000 0.000000
														}
													}
												}
											}
										}
										JOINT LeftHandMiddle1
										{
											OFFSET 8.556145 -0.261200 0.258753
											CHANNELS 3 Xrotation Yrotation Zrotation
											JOINT LeftHandMiddle2
											{
												OFFSET 3.828903 -0.489014 -0.111505
												CHANNELS 3 Xrotation Yrotation Zrotation
												JOINT LeftHandMiddle3
												{
													OFFSET 3.696209 -0.166595 -0.107596
													CHANNELS 3 Xrotation Yrotation Zrotation
													JOINT LeftHandMiddle4
													{
														OFFSET 2.259281 0.534500 -0.065675
														CHANNELS 3 Xrotation Yrotation Zrotation
														End Site
														{
															OFFSET 0.000000 0.000000 0.000000
														}
													}
												}
											}
										}
										JOINT LeftHandRing1
										{
											OFFSET 8.509293 -0.556679 -3.044941
											CHANNELS 3 Xrotation Yrotation Zrotation
											JOINT LeftHandRing2
											{
												OFFSET 2.995171 -0.303261 -0.843591
												CHANNELS 3 Xrotation Yrotation Zrotation
												JOINT LeftHandRing3
												{
													OFFSET 2.968273 -0.101997 -0.834287
													CHANNELS 3 Xrotation Yrotation Zrotation
													JOINT LeftHandRing4
													{
														OFFSET 1.521358 -0.461468 -0.418735
														CHANNELS 3 Xrotation Yrotation Zrotation
														End Site
														{
															OFFSET 0.000000 0.000000 0.000000
														}
													}
												}
											}
										}
									}
								}
							}
						}
					}
					JOINT RightShoulder
					{
						OFFSET -2.196075 4.412512 0.070694
						CHANNELS 3 Xrotation Yrotation Zrotation
						JOINT RightShoulder_split
						{
							OFFSET -2.196075 4.412512 0.070694
							CHANNELS 3 Xrotation Yrotation Zrotation
							JOINT RightArm
							{
								OFFSET -8.774886 -2.970947 -0.094209
								CHANNELS 3 Xrotation Yrotation Zrotation
								JOINT RightForeArm
								{
									OFFSET -8.450586 -0.797386 -0.330665
									CHANNELS 3 Xrotation Yrotation Zrotation
									JOINT RightHand
									{
										OFFSET -18.458664 0.962341 0.025780
										CHANNELS 3 Xrotation Yrotation Zrotation
										JOINT RightHandThumb1
										{
											OFFSET -2.390282 -1.240040 2.604684
											CHANNELS 3 Xrotation Yrotation Zrotation
											JOINT RightHandThumb2
											{
												OFFSET -1.912228 -0.992111 2.083740
												CHANNELS 3 Xrotation Yrotation Zrotation
												JOINT RightHandThumb3
												{
													OFFSET -0.876358 -1.555370 2.930126
													CHANNELS 3 Xrotation Yrotation Zrotation
													JOINT RightHandThumb4
													{
														OFFSET -1.227077 -0.755932 1.835223
														CHANNELS 3 Xrotation Yrotation Zrotation
														End Site
														{
															OFFSET 0.000000 0.000000 0.000000
														}
													}
												}
											}
										}
										JOINT RightHandIndex1
										{
											OFFSET -8.716801 -0.633743 3.098187
											CHANNELS 3 Xrotation Yrotation Zrotation
											JOINT RightHandIndex2
											{
												OFFSET -3.319706 -0.240585 1.198087
												CHANNELS 3 Xrotation Yrotation Zrotation
												JOINT RightHandIndex3
												{
													OFFSET -3.153255 -0.154724 1.138827
													CHANNELS 3 Xrotation Yrotation Zrotation
													JOINT RightHandIndex4
													{
														OFFSET -1.818684 -0.003197 0.655154
														CHANNELS 3 Xrotation Yrotation Zrotation
														End Site
														{
															OFFSET 0.000000 0.000000 0.000000
														}
													}
												}
											}
										}
										JOINT RightHandMiddle1
										{
											OFFSET -8.158691 -0.528496 0.196552
											CHANNELS 3 Xrotation Yrotation Zrotation
											JOINT RightHandMiddle2
											{
												OFFSET -3.890194 -0.261169 -0.136423
												CHANNELS 3 Xrotation Yrotation Zrotation
												JOINT RightHandMiddle3
												{
													OFFSET -3.903057 -0.179909 -0.137173
													CHANNELS 3 Xrotation Yrotation Zrotation
													JOINT RightHandMiddle4
													{
														OFFSET -2.366261 0.198380 -0.083987
														CHANNELS 3 Xrotation Yrotation Zrotation
														End Site
														{
															OFFSET 0.000000 0.000000 0.000000
														}
													}
												}
											}
										}
										JOINT RightHandRing1
										{
											OFFSET -7.616104 -0.395126 -2.681268
											CHANNELS 3 Xrotation Yrotation Zrotation
											JOINT RightHandRing2
											{
												OFFSET -3.235790 -0.462120 -1.101476
												CHANNELS 3 Xrotation Yrotation Zrotation
												JOINT RightHandRing3
												{
													OFFSET -3.179264 -0.138618 -1.084847
													CHANNELS 3 Xrotation Yrotation Zrotation
													JOINT RightHandRing4
													{
														OFFSET -1.963291 -0.101624 -0.668250
														CHANNELS 3 Xrotation Yrotation Zrotation
														End Site
														{
															OFFSET 0.000000 0.000000 0.000000
														}
													}
												}
											}
										}
									}
								}
							}
						}
					}
				}
			}
		}
	}
	JOINT LeftUpLeg
	{
		OFFSET 10.205382 -3.823519 0.155145
		CHANNELS 3 Xrotation Yrotation Zrotation
		JOINT LeftLeg
		{
			OFFSET 0.283732 -12.998343 0.567794
			CHANNELS 3 Xrotation Yrotation Zrotation
			JOINT LeftFoot
			{
				OFFSET -1.058953 -10.688869 -2.184322
				CHANNELS 3 Xrotation Yrotation Zrotation
				JOINT LeftToeBase
				{
					OFFSET 0.108145 -7.191069 7.560211
					CHANNELS 3 Xrotation Yrotation Zrotation
					JOINT LeftToe_End
					{
						OFFSET 0.070226 0.081726 4.490266
						CHANNELS 3 Xrotation Yrotation Zrotation
						End Site
						{
							OFFSET 0.000000 0.000000 0.000000
						}
					}
				}
			}
		}
	}
	JOINT RightUpLeg
	{
		OFFSET -10.205383 -3.823513 0.005508
		CHANNELS 3 Xrotation Yrotation Zrotation
		JOINT RightLeg
		{
			OFFSET -0.283728 -12.998341 0.610627
			CHANNELS 3 Xrotation Yrotation Zrotation
			JOINT RightFoot
			{
				OFFSET 1.058956 -10.688892 -1.945833
				CHANNELS 3 Xrotation Yrotation Zrotation
				JOINT RightToeBase
				{
					OFFSET -0.108150 -7.191040 7.372945
					CHANNELS 3 Xrotation Yrotation Zrotation
					JOINT RightToe_End
					{
						OFFSET -0.070229 0.081738 4.479398
						CHANNELS 3 Xrotation Yrotation Zrotation
						End Site
						{
							OFFSET 0.000000 0.000000 0.000000
						}
					}
				}
			}
		}
	}
}
MOTION
Frames: 6
Frame Time: 0.016667
0.434945 32.300892 -2.876229 -8.587149 0.464651 -5.606267 22.186710 0.210890 -11.249024 4.323411 0.146923 0.771316 0.000000 0.000000 0.000000 4.317600 0.254436 0.769910 6.233863 2.141239 -5.361027 32.391376 5.275872 -5.339066 0.000001 -0.000002 -0.000001 0.683454 -4.757098 -8.802429 0.000000 0.000000 0.000000 -21.561582 -19.024686 -51.916582 -1.007225 -7.712597 -8.415721 -6.882410 -6.508562 13.049750 12.213544 30.503775 4.398662 0.094465 30.343713 12.287520 -2.628941 -5.985638 -3.778423 -0.000002 -0.000005 -0.000005 8.937970 23.621887 -19.470766 7.881324 1.901541 -16.428804 9.670610 0.838933 -20.671665 -0.000002 0.000003 0.000001 0.063339 -0.102185 -14.683447 1.023763 5.035232 -36.362506 0.132566 4.797394 -43.686832 -0.000002 0.000000 -0.000001 -5.398537 -11.651450 -21.055125 -8.279363 12.341986 -47.020009 -4.199354 8.634820 -26.120061 -0.000001 -0.000002 0.000000 -0.194342 2.291458 -1.653627 0.000000 0.000000 0.000000 -17.138089 11.070467 75.224206 -1.078057 9.657275 8.455962 18.678322 9.937054 -15.751057 13.981258 -31.755718 -1.785333 -4.425415 -29.529186 -15.799160 0.186121 6.540479 5.439163 0.000004 -0.000001 0.000003 13.000867 -25.472407 24.417870 5.518764 -1.134651 14.562052 5.406198 -0.921629 14.524812 -0.000004 -0.000003 -0.000001 3.786195 -6.813624 27.335646 0.118793 -3.618268 24.538657 -0.852742 -3.768470 29.126788 0.000002 0.000002 -0.000001 -4.495210 5.844964 29.882860 -9.482155 -9.858638 37.298403 -8.734524 -8.924306 30.000387 -0.000000 0.000001 0.000001 -14.053139 10.931852 14.128544 51.900716 5.068879 4.862464 -28.784586 11.336548 -10.441040 -4.115406 -0.000038 0.000014 0.000001 0.000000 0.000000 -13.909122 -6.550074 -5.387008 30.754668 -6.410121 -0.602171 -4.465535 -12.765297 9.661269 -4.214555 0.000020 0.000012 -0.000000 -0.000001 0.000000 
0.454239 32.291809 -2.884655 -8.972355 0.775039 -5.612696 22.302687 0.450258 -11.337808 4.244835 0.179286 0.853535 0.000000 0.000000 0.000000 4.237868 0.289960 0.852525 6.296057 2.046059 -5.379577 32.415128 4.881102 -5.563026 -0.000002 0.000000 0.000000 0.673851 -4.345956 -8.821355 0.000000 0.000000 0.000000 -23.208182 -20.364675 -53.838768 -0.591886 -3.345177 -8.371299 -7.160697 -5.493532 16.024445 12.252413 30.586779 4.373581 0.094465 30.343720 12.287521 -2.741009 -6.121245 -3.795513 -0.000002 -0.000004 0.000002 8.767778 23.953439 -18.805459 7.886422 1.901806 -16.439331 9.610877 0.839504 -20.545969 -0.000002 -0.000001 0.000001 0.106169 -0.085186 -13.995826 1.053991 5.089550 -36.740663 0.146439 4.833177 -43.909152 -0.000002 -0.000001 -0.000001 -5.316692 -11.961441 -20.331643 -8.319510 12.604895 -47.812666 -4.278673 8.800901 -26.757131 -0.000001 -0.000001 0.000002 -0.200337 2.255781 -1.792491 0.000000 0.000000 0.000000 -17.665367 11.769645 76.070918 -1.006866 8.923016 8.443897 20.733604 10.459302 -13.438789 13.976988 -31.729951 -1.779758 -4.425471 -29.531289 -15.799571 0.270742 6.446602 5.434487 -0.000003 -0.000002 -0.000001 13.214576 -25.596171 24.737461 5.518814 -1.134655 14.562192 5.407652 -0.921773 14.528658 -0.000003 -0.000001 -0.000003 3.861748 -6.896282 27.603200 0.118902 -3.618740 24.541734 -0.830844 -3.756647 29.119159 -0.000001 -0.000000 0.000000 -4.541426 5.818148 30.150265 -9.482450 -9.859381 37.300367 -8.702926 -8.898575 29.992027 -0.000000 0.000003 -0.000000 -13.823024 10.916649 14.153750 52.048999 5.127120 4.908847 -28.848547 11.041003 -10.437494 -4.099950 -0.000032 0.000011 -0.000001 -0.000002 -0.000000 -13.322294 -6.756365 -5.513115 30.744358 -6.394541 -0.516350 -4.600418 -12.810573 9.710214 -4.239004 -0.000003 0.000014 -0.000001 -0.000001 -0.000000 
0.469434 32.296700 -2.881023 -9.287779 1.140993 -5.589738 22.332777 0.616377 -11.408112 4.133710 0.201984 0.930892 0.000000 0.000000 0.000000 4.125801 0.314542 0.929987 6.334324 1.940317 -5.391292 32.282640 4.521314 -5.961182 -0.000001 0.000001 0.000001 0.662104 -3.939414 -8.832055 0.000000 0.000000 0.000000 -24.369398 -21.482933 -55.557582 -0.262294 0.153767 -8.358629 -7.806496 -3.922955 18.606641 12.290728 30.636219 4.335048 0.094465 30.343716 12.287518 -2.854843 -6.258735 -3.812901 -0.000003 -0.000003 -0.000001 8.700954 24.320118 -18.386654 7.891846 1.902100 -16.450507 9.545562 0.839954 -20.408559 -0.000001 0.000003 -0.000001 0.170021 0.028719 -13.473286 1.087235 5.148310 -37.151328 0.159249 4.865941 -44.113105 -0.000000 0.000000 0.000001 -5.201926 -12.135647 -19.694586 -8.358920 12.891010 -48.674192 -4.353182 8.961361 -27.369555 0.000000 0.000001 0.000000 -0.201593 2.145581 -1.926401 0.000000 0.000000 0.000000 -17.993976 12.329182 76.845584 -0.965147 8.491163 8.437249 22.639806 10.994274 -11.026871 13.966813 -31.662015 -1.765467 -4.425756 -29.531344 -15.799250 0.347277 6.361683 5.430581 0.000002 -0.000001 0.000001 13.461445 -25.675895 25.162193 5.518889 -1.134661 14.562368 5.398946 -0.920839 14.505735 -0.000001 -0.000004 0.000000 3.941776 -6.973356 27.926764 0.119000 -3.619176 24.544594 -0.811996 -3.741511 29.086320 0.000002 0.000003 0.000001 -4.571688 5.772706 30.415123 -9.482701 -9.859992 37.302115 -8.671133 -8.867782 29.962524 -0.000001 0.000001 -0.000000 -13.617864 10.913499 14.174170 52.060692 5.186836 4.928933 -28.831444 10.656492 -10.425180 -4.092083 -0.000032 0.000012 -0.000000 -0.000001 -0.000000 -12.695366 -6.962933 -5.650136 30.621715 -6.392390 -0.417734 -4.721900 -12.906278 9.761837 -4.260924 -0.000007 0.000008 0.000000 -0.000002 -0.000000 
0.482395 32.316048 -2.864991 -9.545531 1.534413 -5.544048 22.278074 0.706578 -11.456100 3.999442 0.214996 0.991230 0.000000 0.000000 0.000000 3.990883 0.327721 0.990227 6.336061 1.838044 -5.398911 31.969363 4.256894 -6.515821 -0.000001 0.000000 0.000002 0.649439 -3.574112 -8.847083 0.000000 0.000000 0.000000 -24.853366 -22.295735 -56.929965 -0.043687 2.476675 -8.361334 -8.652997 -1.954102 20.260131 12.328315 30.649641 4.284248 0.094465 30.343713 12.287517 -2.956774 -6.381722 -3.828407 -0.000002 -0.000001 -0.000001 8.761792 24.691260 -18.286088 7.896416 1.902357 -16.459865 9.482983 0.840237 -20.276919 0.000003 -0.000001 -0.000002 0.247583 0.229529 -13.181177 1.121205 5.207332 -37.565668 0.169930 4.892946 -44.281428 0.000001 -0.000001 -0.000000 -5.073398 -12.163312 -19.207978 -8.394362 13.180768 -49.545864 -4.416119 9.100493 -27.898232 0.000000 -0.000000 0.000000 -0.198738 1.964407 -2.037514 0.000000 0.000000 0.000000 -18.108408 12.813017 77.521588 -0.953118 8.366521 8.435342 24.119647 11.410277 -8.810832 13.948835 -31.565801 -1.749377 -4.426176 -29.529961 -15.798450 0.402706 6.300210 5.428065 0.000002 -0.000002 -0.000001 13.725502 -25.711125 25.656195 5.518921 -1.134685 14.562477 5.379979 -0.918765 14.455959 0.000001 0.000004 -0.000000 4.022975 -7.042363 28.278701 0.119114 -3.619537 24.547025 -0.796406 -3.723526 29.030196 0.000001 0.000002 -0.000002 -4.582135 5.711947 30.655258 -9.482922 -9.860505 37.303430 -8.640819 -8.834107 29.915621 -0.000001 0.000001 0.000000 -13.404945 10.933598 14.187886 51.927090 5.248092 4.925043 -28.742679 10.207616 -10.405453 -4.089746 -0.000025 0.000012 -0.000000 0.000001 -0.000000 -12.020571 -7.151047 -5.779756 30.366027 -6.411980 -0.322859 -4.805885 -13.043153 9.823696 -4.276499 -0.000013 0.000009 0.000000 -0.000002 -0.000000 
0.494898 32.348549 -2.837236 -9.759999 1.924771 -5.487023 22.143209 0.725866 -11.475726 3.849620 0.219161 1.025537 0.000000 0.000000 0.000000 3.840771 0.330080 1.024327 6.295817 1.753649 -5.408833 31.481131 4.130780 -7.171963 0.000001 -0.000002 -0.000002 0.637034 -3.276430 -8.870930 0.000000 0.000000 0.000000 -24.580348 -22.804700 -57.886680 0.062443 3.602271 -8.365828 -9.351035 0.232773 20.559834 12.363809 30.629570 4.225558 0.094467 30.343720 12.287523 -3.033860 -6.474719 -3.840126 -0.000002 0.000000 0.000001 8.959109 25.034535 -18.532304 7.898660 1.902465 -16.464451 9.431828 0.840369 -20.169303 0.000001 -0.000001 0.000001 0.333051 0.497263 -13.154577 1.153178 5.261991 -37.951045 0.177327 4.911515 -44.397336 -0.000000 0.000001 0.000002 -4.948577 -12.049690 -18.917903 -8.423403 13.452225 -50.361898 -4.461261 9.202388 -28.284146 0.000001 0.000003 0.000000 -0.193725 1.742890 -2.117240 0.000000 0.000000 0.000000 -17.994239 13.276858 78.069499 -0.967581 8.516426 8.437612 25.044786 11.598412 -7.039362 13.924194 -31.458427 -1.736464 -4.426588 -29.527762 -15.797497 0.427676 6.272588 5.427397 -0.000001 0.000001 0.000002 13.991819 -25.703962 26.184963 5.518948 -1.134680 14.562535 5.351379 -0.915616 14.380864 -0.000001 0.000001 0.000001 4.101691 -7.100417 28.634262 0.119177 -3.619795 24.548841 -0.783871 -3.703472 28.954572 0.000001 0.000002 -0.000001 -4.572701 5.641570 30.854143 -9.483054 -9.860847 37.304372 -8.613421 -8.799971 29.856891 -0.000000 -0.000001 -0.000001 -13.158396 10.983374 14.196857 51.659999 5.311759 4.902938 -28.601656 9.726191 -10.382787 -4.090250 -0.000030 0.000009 -0.000000 -0.000002 -0.000000 -11.297214 -7.299225 -5.878674 29.968579 -6.460407 -0.250115 -4.830895 -13.212637 9.903096 -4.283024 -0.000021 0.000007 0.000000 0.000000 0.000000 
0.508208 32.391441 -2.799221 -9.945029 2.284009 -5.431477 21.936399 0.686393 -11.462639 3.688875 0.216078 1.029963 0.000000 0.000000 0.000000 3.680067 0.323241 1.028529 6.215247 1.697925 -5.428488 30.851439 4.158335 -7.855760 0.000001 -0.000000 0.000002 0.625822 -3.056940 -8.901712 0.000000 0.000000 0.000000 -23.591149 -23.091869 -58.444221 0.077647 3.763593 -8.366655 -9.491196 2.400828 19.287541 12.393940 30.582537 4.166416 0.094465 30.343710 12.287524 -3.075812 -6.525526 -3.846439 -0.000003 0.000003 -0.000004 9.280244 25.318705 -19.101568 7.897092 1.902381 -16.461224 9.399812 0.840399 -20.101969 0.000001 0.000001 0.000001 0.422029 0.804194 -13.391143 1.180333 5.307803 -38.275151 0.180548 4.919537 -44.447391 -0.000001 -0.000001 -0.000001 -4.839245 -11.814504 -18.845013 -8.445015 13.683562 -51.057098 -4.483647 9.253616 -28.477700 -0.000001 -0.000000 -0.000003 -0.188658 1.530900 -2.163861 0.000000 0.000000 0.000000 -17.648097 13.764338 78.462734 -1.001833 8.871057 8.443043 25.431800 11.527439 -5.894163 13.897009 -31.356951 -1.728466 -4.426944 -29.525426 -15.796559 0.418280 6.283137 5.428749 0.000004 -0.000001 0.000003 14.246833 -25.657609 26.718935 5.518978 -1.134663 14.562566 5.314516 -0.911538 14.284041 0.000000 -0.000001 0.000001 4.173341 -7.144085 28.973983 0.119193 -3.619978 24.549947 -0.774277 -3.682224 28.864673 0.000001 0.000003 -0.000004 -4.547212 5.569232 31.002362 -9.483122 -9.861001 37.304827 -8.590146 -8.767743 29.792694 -0.000001 -0.000001 -0.000000 -12.862673 11.063263 14.206145 51.287566 5.379813 4.869371 -28.433453 9.245395 -10.364217 -4.090702 -0.000032 0.000018 0.000001 -0.000002 -0.000000 -10.532444 -7.388722 -5.925409 29.434919 -6.541523 -0.216006 -4.782769 -13.406240 10.005155 -4.279548 -0.000029 0.000007 0.000000 -0.000001 -0.000000 
